# Blender v2.91.2 OBJ File: 'ghostCube_cracked.blend'
# www.blender.org
mtllib ghostCube_cracked.mtl
o Cube_cell_Cube_cell.008
v 0.496194 0.492664 -0.494392
v 0.425510 -0.204683 -0.014398
v 0.056139 0.178316 -0.023508
v 0.070667 0.165168 -0.020370
v 0.233804 0.492664 -0.062985
v 0.078068 0.492664 -0.494392
v 0.486718 0.492664 -0.041812
v 0.496194 0.492664 -0.041030
v 0.496194 -0.190459 -0.010710
v 0.496194 -0.253259 -0.389784
v 0.496194 -0.270569 -0.494392
v 0.496194 0.242048 0.001846
v -0.182385 0.063984 -0.494392
v 0.189869 -0.329248 -0.494392
v -0.182385 0.063984 -0.494392
v 0.078068 0.492664 -0.494392
v 0.233804 0.492664 -0.062985
v 0.486718 0.492664 -0.041812
v 0.496194 0.492664 -0.041030
v 0.496194 0.242048 0.001846
v 0.496194 -0.190459 -0.010710
v 0.496194 -0.253259 -0.389784
v 0.496194 -0.270569 -0.494392
v 0.189869 -0.329248 -0.494392
vt 0.625000 0.615654
vt 0.625000 0.500000
vt 0.731665 0.500000
vt 0.691936 0.610053
vt 0.627417 0.615454
vt 0.430298 0.500000
vt 0.561067 0.626591
vt 0.450734 0.623389
vt 0.434714 0.526686
vt 0.625000 0.393335
vt 0.415329 0.421856
vt 0.515816 0.326732
vt 0.000000 0.000000
vt 1.000000 0.000000
vt 0.946833 0.946833
vt 0.072860 0.000000
vt 1.000000 0.000000
vt 1.000000 0.946833
vt 0.077993 0.025517
vt 1.000000 0.071799
vt 1.000000 1.000000
vt 0.072860 0.072860
vt 0.048454 0.000000
vt 1.000000 0.000000
vt 1.000000 1.000000
vt 0.048905 0.048905
vt 0.048905 0.000000
vt 0.000000 0.000000
vt 0.741461 0.000000
vt 0.945117 0.945117
vt 0.000000 0.000000
vt 1.000000 1.000000
vt 0.255660 0.255660
vt 1.000000 0.258539
vt 1.000000 0.255660
vt 0.048453 0.048453
vt 0.942511 0.048250
vt 0.065867 0.049166
vt 1.000000 0.049215
vt 0.071799 0.071799
vn 0.0000 1.0000 0.0000
vn 1.0000 0.0000 0.0000
vn 0.0000 0.0000 -1.0000
vn -0.0783 0.1487 0.9858
vn -0.0809 0.1681 0.9824
vn -0.0822 0.1698 0.9820
vn -0.6403 -0.6064 0.4715
vn -0.6453 -0.6002 0.4726
vn -0.0468 -0.0289 0.9985
vn 0.1867 -0.9692 0.1606
vn 0.1857 -0.9694 0.1604
vn -0.8165 0.4970 0.2938
g Cube_cell_Cube_cell.008_Material
usemtl Material
s off
f 19/1/1 1/2/1 16/3/1 17/4/1 18/5/1
f 23/6/2 1/2/2 19/1/2 12/7/2 21/8/2 22/9/2
f 16/10/3 1/2/3 23/6/3 24/11/3 15/12/3
f 3/13/4 4/14/4 20/15/4
f 7/16/5 3/17/5 20/18/5 8/19/5
f 5/20/6 3/21/6 7/22/6
f 14/23/7 2/24/7 4/25/7 13/26/7
f 13/27/8 4/14/8 3/21/8
f 2/28/9 9/29/9 20/30/9 4/31/9
f 2/32/10 10/33/10 9/34/10
f 10/35/11 2/32/11 14/36/11 11/37/11
f 6/38/12 13/39/12 3/21/12 5/40/12
o Cube_cell.001_Cube_cell.009
v 0.497986 -0.497306 -0.494115
v 0.427983 -0.215758 -0.013522
v 0.163609 -0.497306 -0.494115
v 0.424411 -0.497306 0.092651
v 0.497986 -0.497306 0.102312
v 0.497986 -0.442552 0.081573
v 0.497986 -0.201564 -0.009999
v 0.497986 -0.207376 -0.045438
v 0.497986 -0.281747 -0.494115
v 0.196263 -0.339658 -0.494115
v 0.191861 -0.340514 -0.494115
v 0.497986 -0.497306 0.102312
v 0.424411 -0.497306 0.092651
v 0.163609 -0.497306 -0.494115
v 0.497986 -0.201564 -0.009999
v 0.497986 -0.442552 0.081573
v 0.497986 -0.281747 -0.494115
v 0.497986 -0.207376 -0.045438
v 0.191861 -0.340514 -0.494115
v 0.196263 -0.339658 -0.494115
vt 0.289700 0.500000
vt 0.375000 0.500000
vt 0.375000 0.652150
vt 0.356231 0.649685
vt 0.450445 0.623499
vt 0.388968 0.646859
vt 0.429990 0.500000
vt 0.448962 0.614458
vt 0.375000 0.414700
vt 0.414998 0.421907
vt 0.415216 0.423030
vt 1.000000 0.952318
vt 0.951868 0.951868
vt 0.000000 0.000000
vt 0.739445 0.000000
vt 1.000000 0.071971
vt 0.952318 0.952318
vt 0.071971 0.071971
vt 0.951670 0.070990
vt 1.000000 0.000000
vt 1.000000 0.919886
vt 0.251348 0.171834
vt 0.258415 0.000000
vt 1.000000 1.000000
vt 0.258415 0.258415
vt 1.000000 0.260555
vt 0.951868 0.000000
vt 0.951727 0.897107
vt 0.080114 0.000000
vn 0.0000 -1.0000 -0.0000
vn 1.0000 0.0000 0.0000
vn -0.0000 0.0000 -1.0000
vn -0.1885 0.9691 -0.1590
vn -0.1860 0.9693 -0.1607
vn -0.1219 0.3516 0.9282
vn -0.1182 0.3527 0.9282
vn -0.9016 0.1625 0.4008
g Cube_cell.001_Cube_cell.009_Material
usemtl Material
s off
f 38/41/13 25/42/13 36/43/13 37/44/13
f 39/45/14 40/46/14 36/43/14 25/42/14 41/47/14 42/48/14
f 25/42/15 38/49/15 43/50/15 44/51/15 41/47/15
f 34/52/16 35/53/16 26/54/16 31/55/16 32/56/16
f 34/57/17 32/58/17 33/59/17
f 26/60/18 28/61/18 29/62/18 30/63/18
f 26/64/19 30/65/19 31/66/19
f 26/54/20 35/67/20 27/68/20 28/69/20
o Cube_cell.002_Cube_cell.001
v 0.491690 0.495957 0.493991
v -0.260898 0.089892 0.148182
v -0.256239 0.091879 0.137479
v 0.065915 0.169184 -0.010783
v -0.259933 0.094338 0.139438
v 0.051336 0.181563 -0.014455
v 0.229035 0.495957 -0.053765
v 0.482944 0.495957 -0.032883
v 0.491690 0.495957 -0.032151
v -0.306033 0.495957 0.493991
v -0.276377 0.495957 0.221905
v -0.253583 0.495957 0.208963
v 0.466663 0.186133 0.493991
v 0.491690 0.190811 0.493991
v -0.297581 0.043751 0.493991
v 0.491690 0.246151 0.011235
v -0.276377 0.495957 0.221905
v -0.306033 0.495957 0.493991
v 0.491690 0.495957 -0.032151
v 0.482944 0.495957 -0.032883
v 0.229035 0.495957 -0.053765
v -0.253583 0.495957 0.208963
v -0.297581 0.043751 0.493991
v 0.466663 0.186133 0.493991
v 0.491690 0.190811 0.493991
v 0.491690 0.246151 0.011235
vt 0.000000 0.000000
vt 1.000000 0.000000
vt 1.000000 1.000000
vt 0.000000 0.000000
vt 1.000000 0.000000
vt 0.000000 0.000000
vt 1.000000 1.000000
vt 0.815121 0.677289
vt 0.820935 0.680590
vt 0.828501 0.750000
vt 0.625000 0.750000
vt 0.625000 0.615780
vt 0.627231 0.615593
vt 0.692004 0.610266
vt 0.547157 0.750000
vt 0.625000 0.953501
vt 0.509651 0.951287
vt 0.545963 0.756384
vt 0.561475 0.626809
vt 1.000000 0.927199
vt 0.071688 0.000000
vt 1.000000 0.000000
vt 0.000000 0.000000
vt 0.927807 0.000000
vt 0.927199 0.927199
vt 1.000000 0.928312
vt 0.976363 0.923497
vt 0.052485 0.000000
vt 1.000000 0.072193
vt 0.000000 0.000000
vt 0.942586 0.000000
vt 0.054185 0.000000
vt 1.000000 0.000000
vt 1.000000 0.945815
vt 0.968155 0.943757
vt 0.935753 0.935753
vt 1.000000 0.000000
vt 0.942586 0.942586
vt 1.000000 0.935753
vt 0.064275 0.000000
vt 0.933867 0.933867
vt 0.933867 0.000000
vt 0.943502 0.012511
vt 0.943179 0.943179
vn -0.4505 0.0337 -0.8921
vn -0.2461 -0.5304 -0.8112
vn -0.6453 -0.6499 -0.4016
vn 0.0000 1.0000 0.0000
vn -0.0000 0.0000 1.0000
vn 1.0000 0.0000 0.0000
vn 0.0808 -0.1685 -0.9824
vn -0.4721 0.1584 -0.8672
vn 0.0823 -0.1705 -0.9819
vn -0.4738 0.1575 -0.8664
vn 0.0849 -0.1901 -0.9781
vn 0.1825 -0.9768 -0.1121
vn -0.9929 -0.0164 -0.1179
vn 0.1820 -0.9770 -0.1108
vn 0.1557 -0.9812 -0.1144
vn -0.9940 -0.0184 -0.1081
g Cube_cell.002_Cube_cell.001_Material
usemtl Material
s off
f 47/70/21 49/71/21 50/72/21
f 48/73/22 47/74/22 50/72/22
f 46/75/23 49/71/23 47/76/23
f 66/77/24 61/78/24 62/79/24 45/80/24 63/81/24 64/82/24 65/83/24
f 69/84/25 45/80/25 62/85/25 67/86/25 68/87/25
f 70/88/26 63/81/26 45/80/26 69/84/26
f 51/89/27 52/90/27 50/91/27
f 50/92/28 56/93/28 51/94/28
f 52/95/29 53/96/29 60/97/29 50/91/29
f 56/98/30 50/72/30 49/99/30 55/100/30
f 60/101/31 48/102/31 50/72/31
f 48/102/32 60/103/32 58/104/32 57/105/32 47/70/32
f 49/99/33 46/106/33 55/107/33
f 47/74/34 57/108/34 59/109/34
f 59/110/35 46/75/35 47/74/35
f 46/75/36 59/111/36 54/112/36 55/113/36
o Cube_cell.003_Cube_cell.002
v 0.494190 -0.493119 0.494748
v -0.258748 0.079545 0.151761
v -0.252993 0.082301 0.138686
v 0.068863 0.159141 -0.009912
v 0.423917 -0.210808 -0.004322
v -0.028867 -0.493119 0.494748
v -0.040473 -0.477704 0.494748
v 0.468949 0.175916 0.494748
v 0.494190 0.180611 0.494748
v -0.333067 -0.088476 0.494748
v -0.295279 0.033308 0.494748
v 0.139558 -0.493119 0.207751
v 0.494190 -0.493119 0.112145
v 0.420089 -0.493119 0.102602
v 0.494190 -0.438381 0.091317
v 0.494190 -0.196752 -0.000545
v 0.494190 0.123958 0.008734
v 0.494190 0.235753 0.012008
v -0.295279 0.033308 0.494748
v -0.333067 -0.088476 0.494748
v -0.040473 -0.477704 0.494748
v -0.028867 -0.493119 0.494748
v 0.494190 0.180611 0.494748
v 0.468949 0.175916 0.494748
v 0.420089 -0.493119 0.102602
v 0.494190 -0.493119 0.112145
v 0.139558 -0.493119 0.207751
v 0.494190 0.123958 0.008734
v 0.494190 0.235753 0.012008
v 0.494190 -0.438381 0.091317
v 0.494190 -0.196752 -0.000545
vt 0.000000 0.000000
vt 1.000000 0.000000
vt 1.000000 1.000000
vt 0.509292 0.951395
vt 0.478225 0.961035
vt 0.378932 0.886394
vt 0.375000 0.883433
vt 0.375000 0.750000
vt 0.546870 0.750000
vt 0.545672 0.756439
vt 0.356097 0.649963
vt 0.375000 0.652397
vt 0.241567 0.750000
vt 0.284612 0.676654
vt 0.532418 0.626017
vt 0.560937 0.626852
vt 0.388964 0.647084
vt 0.450604 0.623650
vt 0.067086 0.000000
vt 1.000000 0.000000
vt 1.000000 0.932938
vt 0.932938 0.932938
vt 0.000000 0.000000
vt 0.959278 0.000000
vt 0.958762 0.928065
vt 0.066071 0.000000
vt 1.000000 0.932914
vt 1.000000 1.000000
vt 0.063800 0.000000
vt 1.000000 0.000000
vt 1.000000 0.040722
vt 0.000000 0.000000
vt 0.828997 0.748763
vt 0.079332 0.000000
vt 1.000000 0.741264
vt 0.000000 0.000000
vt 0.742702 0.000000
vt 0.741264 0.741264
vt 0.920668 0.000000
vt 0.959466 0.959466
vt 0.935416 0.935416
vt 0.936200 0.000000
vt 1.000000 1.000000
vt 0.257650 0.257650
vt 1.000000 0.257298
vt 0.945766 0.000000
vt 1.000000 0.257650
vt 1.000000 0.935417
vt 0.959494 0.951229
vt 0.054234 0.000000
vn -0.3297 -0.3298 -0.8846
vn 0.0000 0.0000 1.0000
vn 0.0000 -1.0000 0.0000
vn 1.0000 -0.0000 0.0000
vn -0.7241 -0.5443 -0.4235
vn -0.7233 -0.5446 -0.4245
vn -0.9533 0.2958 -0.0617
vn -0.2207 0.9694 0.1072
vn -0.7203 -0.5431 -0.4315
vn 0.1195 -0.3531 -0.9279
vn 0.1204 -0.3528 -0.9279
vn -0.3304 -0.3311 -0.8838
vn -0.1823 0.9768 0.1128
vn 0.0479 0.0289 -0.9984
vn 0.0462 0.0292 -0.9985
vn -0.1817 0.9770 0.1116
g Cube_cell.003_Cube_cell.002_Material
usemtl Material
s off
f 74/114/37 75/115/37 73/116/37
f 89/117/38 90/118/38 91/119/38 92/120/38 71/121/38 93/122/38 94/123/38
f 95/124/39 96/125/39 71/121/39 92/126/39 97/127/39
f 98/128/40 99/129/40 93/122/40 71/121/40 96/125/40 100/130/40 101/131/40
f 80/132/41 72/133/41 77/134/41
f 77/135/42 72/136/42 82/137/42 76/138/42
f 81/139/43 72/133/43 80/140/43
f 72/141/44 81/142/44 73/143/44
f 82/144/45 72/141/45 73/145/45
f 83/146/46 84/147/46 75/115/46 85/148/46
f 75/149/47 86/150/47 85/151/47
f 73/116/48 75/149/48 84/152/48 82/153/48
f 78/154/49 73/145/49 81/155/49
f 75/156/50 87/157/50 86/158/50
f 74/114/51 88/159/51 87/160/51 75/156/51
f 74/114/52 73/143/52 78/161/52 79/162/52 88/163/52
o Cube_cell.004_Cube_cell.003
v -0.495621 0.494466 -0.492753
v 0.043682 0.180083 -0.021510
v -0.264880 0.091341 0.129897
v -0.267637 0.092841 0.131856
v 0.065051 0.494466 -0.492753
v 0.221174 0.494466 -0.061016
v -0.284460 0.494466 0.213651
v -0.495621 0.494466 0.176219
v -0.495621 0.052573 0.082801
v -0.495621 0.008141 0.022439
v -0.495621 -0.031034 -0.492753
v -0.195975 0.066753 -0.492753
v -0.492284 -0.029949 -0.492753
v -0.495621 0.052573 0.082801
v -0.495621 0.494466 0.176219
v -0.284460 0.494466 0.213651
v 0.221174 0.494466 -0.061016
v 0.065051 0.494466 -0.492753
v -0.495621 -0.031034 -0.492753
v -0.495621 0.008141 0.022439
v -0.195975 0.066753 -0.492753
v -0.492284 -0.029949 -0.492753
vt 0.000000 0.000000
vt 1.000000 0.000000
vt 1.000000 1.000000
vt 0.821133 0.680205
vt 0.692144 0.610137
vt 0.731972 0.500000
vt 0.875000 0.500000
vt 0.875000 0.670656
vt 0.625000 0.079344
vt 0.625000 0.250000
vt 0.490944 0.250000
vt 0.500938 0.118573
vt 0.512321 0.103112
vt 0.625000 0.393029
vt 0.515890 0.326440
vt 0.491221 0.250851
vt 1.000000 0.000000
vt 1.000000 0.950371
vt 0.049448 0.000000
vt 1.000000 0.057126
vt 1.000000 0.000000
vt 0.071950 0.071950
vt 0.904637 0.904637
vt 0.000000 0.000000
vt 0.903365 0.000000
vt 0.903365 0.903365
vt 0.000000 0.000000
vt 1.000000 0.904637
vt 0.956291 0.950737
vt 0.950371 0.950371
vt 0.942874 0.000000
vt 0.895109 0.051637
vt 0.902311 0.902311
vt 0.950441 0.933902
vt 0.071950 0.000000
vt 0.950552 0.000000
vn 0.4805 -0.2245 0.8477
vn 0.0000 1.0000 -0.0000
vn -1.0000 0.0000 0.0000
vn 0.0000 0.0000 -1.0000
vn 0.3095 -0.9483 0.0707
vn 0.4714 -0.1570 0.8678
vn 0.0143 -0.8053 0.5927
vn 0.0072 -0.7891 0.6142
vn 0.3083 -0.9485 0.0722
vn -0.1712 -0.2036 0.9640
vn 0.8156 -0.4977 -0.2950
g Cube_cell.004_Cube_cell.003_Material
usemtl Material
s off
f 105/164/53 104/165/53 103/166/53
f 117/167/54 118/168/54 119/169/54 102/170/54 116/171/54
f 116/172/55 102/173/55 120/174/55 121/175/55 115/176/55
f 102/173/56 119/177/56 122/178/56 123/179/56 120/174/56
f 103/180/57 114/181/57 113/182/57
f 108/183/58 105/184/58 103/166/58 107/185/58
f 111/186/59 104/187/59 110/188/59
f 110/189/60 104/187/60 105/184/60
f 103/190/61 104/165/61 111/191/61 112/192/61 114/193/61
f 108/194/62 109/195/62 110/196/62 105/164/62
f 106/197/63 107/198/63 103/190/63 113/199/63
o Cube_cell.005_Cube_cell.004
v -0.492299 -0.493908 -0.493882
v 0.416500 -0.211780 -0.013419
v -0.259976 0.081789 0.129108
v 0.047053 0.170963 -0.022554
v 0.061281 0.158616 -0.019233
v -0.492299 -0.001469 0.020815
v -0.492299 -0.002373 0.008050
v -0.492299 -0.493908 -0.057757
v -0.492299 -0.040262 -0.493882
v 0.159602 -0.493908 -0.478233
v 0.152637 -0.493908 -0.493882
v 0.132903 -0.493908 0.197662
v 0.412844 -0.493908 0.093324
v -0.489011 -0.039191 -0.493882
v -0.192310 0.057228 -0.493882
v 0.180516 -0.336650 -0.493882
v -0.492299 -0.493908 -0.057757
v -0.492299 -0.001469 0.020815
v -0.492299 -0.002373 0.008050
v -0.492299 -0.040262 -0.493882
v 0.132903 -0.493908 0.197662
v 0.152637 -0.493908 -0.493882
v 0.159602 -0.493908 -0.478233
v 0.412844 -0.493908 0.093324
v -0.192310 0.057228 -0.493882
v 0.180516 -0.336650 -0.493882
v -0.489011 -0.039191 -0.493882
vt 0.000000 0.000000
vt 1.000000 0.000000
vt 1.000000 1.000000
vt 0.375000 0.250000
vt 0.375000 0.138744
vt 0.500622 0.118700
vt 0.500392 0.121956
vt 0.490726 0.250000
vt 0.284490 0.676414
vt 0.125000 0.611256
vt 0.125000 0.500000
vt 0.289524 0.500000
vt 0.291301 0.503992
vt 0.355904 0.649797
vt 0.375000 0.414524
vt 0.490999 0.250839
vt 0.515430 0.326686
vt 0.415117 0.421637
vt 1.000000 0.000000
vt 1.000000 0.920077
vt 0.945796 0.896882
vt 0.048379 0.000000
vt 0.920077 0.920077
vt 0.000000 0.000000
vt 0.920280 0.000000
vt 0.049445 0.000000
vt 1.000000 0.000000
vt 1.000000 0.951621
vt 0.904913 0.000000
vt 0.959435 0.021031
vt 0.959497 0.959497
vt 0.000000 0.000000
vt 0.994520 0.950868
vt 0.043302 0.000000
vt 1.000000 0.000000
vt 1.000000 0.950515
vt 0.950224 0.000000
vt 0.950515 0.950515
vt 0.950224 0.950224
vt 0.959497 0.000000
vt 1.000000 0.079720
vt 1.000000 1.000000
vt 1.000000 0.956698
vt 0.904913 0.904913
vn 0.2551 0.5142 0.8188
vn -1.0000 -0.0000 0.0000
vn 0.0000 -1.0000 -0.0000
vn 0.0000 0.0000 -1.0000
vn 0.9018 -0.1599 -0.4014
vn 0.9021 -0.1629 -0.3997
vn 0.6402 0.6063 -0.4718
vn -0.3742 -0.1462 0.9157
vn -0.3089 0.9484 -0.0716
vn -0.3082 0.9486 -0.0723
vn 0.6383 0.6088 -0.4711
vn 0.3296 0.3302 0.8845
vn -0.3087 0.9488 -0.0671
g Cube_cell.005_Cube_cell.004_Material
usemtl Material
s off
f 127/200/64 126/201/64 128/202/64
f 124/203/65 140/204/65 141/205/65 142/206/65 143/207/65
f 144/208/66 140/209/66 124/210/66 145/211/66 146/212/66 147/213/66
f 145/214/67 124/203/67 143/207/67 150/215/67 148/216/67 149/217/67
f 125/218/68 133/219/68 134/220/68 139/221/68
f 133/222/69 125/223/69 136/224/69
f 138/225/70 128/226/70 125/218/70 139/227/70
f 129/228/71 131/229/71 135/230/71 126/231/71
f 132/232/72 130/233/72 127/234/72 137/235/72
f 127/200/73 138/236/73 137/237/73
f 127/200/74 128/226/74 138/238/74
f 135/239/75 136/240/75 125/241/75 128/202/75 126/231/75
f 126/231/76 127/234/76 130/242/76 129/243/76
o Cube_cell.006_Cube_cell.005
v -0.497797 0.493500 0.496853
v -0.271511 0.086941 0.153399
v -0.270297 0.091550 0.142120
v -0.286814 0.493500 0.223984
v -0.316606 0.493500 0.496853
v -0.497797 0.493500 0.187150
v -0.346029 -0.081556 0.496853
v -0.497797 -0.122044 0.496853
v -0.308237 0.040601 0.496853
v -0.497797 -0.116725 0.484512
v -0.497797 0.052007 0.093897
v -0.316606 0.493500 0.496853
v -0.286814 0.493500 0.223984
v -0.346029 -0.081556 0.496853
v -0.308237 0.040601 0.496853
v -0.497797 0.493500 0.187150
v -0.497797 -0.122044 0.496853
v -0.497797 0.052007 0.093897
v -0.497797 -0.116725 0.484512
vt 0.875000 0.670994
vt 0.875000 0.750000
vt 0.828778 0.750000
vt 0.821178 0.680390
vt 0.625000 0.953778
vt 0.625000 1.000000
vt 0.467974 1.000000
vt 0.478317 0.961263
vt 0.509515 0.951643
vt 0.512374 0.102795
vt 0.469331 0.003148
vt 0.467974 0.000000
vt 0.625000 0.000000
vt 0.625000 0.079006
vt 0.097687 0.000000
vt 1.000000 0.000000
vt 1.000000 0.902688
vt 0.935159 0.000000
vt 0.935220 0.887285
vt 0.902688 0.902688
vt 0.000000 0.000000
vt 1.000000 0.902313
vt 0.157017 0.051809
vt 0.057254 0.000000
vt 1.000000 0.000000
vt 1.000000 1.000000
vt 0.066095 0.000000
vt 0.000000 0.000000
vt 1.000000 0.064841
vt 0.933905 0.000000
vt 0.933172 0.933172
vt 0.990428 0.057050
vt 1.000000 0.064128
vt 0.057254 0.057254
vn 0.0000 1.0000 0.0000
vn 0.0000 0.0000 1.0000
vn -1.0000 0.0000 0.0000
vn 0.2367 -0.8919 -0.3853
vn 0.2379 -0.8919 -0.3845
vn 0.1687 0.2035 -0.9644
vn 0.9944 -0.0029 0.1059
vn 0.5805 -0.7738 -0.2537
vn 0.9535 -0.2950 0.0622
vn 0.9939 0.0185 0.1088
g Cube_cell.006_Cube_cell.005_Material
usemtl Material
s off
f 166/244/77 151/245/77 162/246/77 163/247/77
f 162/248/78 151/249/78 167/250/78 164/251/78 165/252/78
f 168/253/79 169/254/79 167/255/79 151/256/79 166/257/79
f 161/258/80 153/259/80 160/260/80
f 157/261/81 158/262/81 160/263/81 153/264/81
f 153/259/82 161/265/82 156/266/82 154/267/82
f 152/268/83 153/269/83 159/270/83
f 152/271/84 157/272/84 153/269/84
f 159/273/85 157/274/85 152/271/85
f 155/275/86 159/276/86 153/269/86 154/277/86
o Cube_cell.007_Cube_cell.006
v -0.496442 -0.493464 0.494889
v -0.264680 0.081630 0.138437
v -0.269244 0.079493 0.149479
v -0.268464 0.084096 0.140134
v -0.041030 -0.493464 0.494889
v -0.496442 -0.130459 0.494889
v -0.344706 -0.089690 0.494889
v -0.496442 0.044131 0.091273
v -0.496442 -0.493464 -0.047681
v -0.496442 -0.000768 0.030862
v 0.127488 -0.493464 0.207098
v -0.041030 -0.493464 0.494889
v -0.344706 -0.089690 0.494889
v -0.496442 -0.130459 0.494889
v 0.127488 -0.493464 0.207098
v -0.496442 0.044131 0.091273
v -0.496442 -0.000768 0.030862
v -0.496442 -0.493464 -0.047681
vt 0.000000 0.000000
vt 1.000000 0.000000
vt 1.000000 1.000000
vt 0.478004 0.961292
vt 0.467603 1.000000
vt 0.375000 1.000000
vt 0.375000 0.883824
vt 0.375000 0.138411
vt 0.375000 0.000000
vt 0.467604 0.000000
vt 0.512142 0.102963
vt 0.500688 0.118374
vt 0.284103 0.676697
vt 0.241176 0.750000
vt 0.125000 0.750000
vt 0.125000 0.611589
vt 0.943582 0.142368
vt 0.934874 0.934874
vt 0.000000 0.000000
vt 0.903201 0.000000
vt 1.000000 0.000000
vt 0.959127 0.959127
vt 0.000000 0.000000
vt 0.933230 0.000000
vt 0.970288 0.928934
vt 0.041020 0.000000
vt 1.000000 0.066770
vt 1.000000 1.000000
vt 0.096472 0.000000
vt 0.096472 0.096472
vt 1.000000 0.096799
vt 1.000000 1.000000
vt 0.095047 0.000000
vt 1.000000 0.000000
vt 1.000000 0.959126
vt 0.061885 0.021174
vn 0.6189 0.6829 0.3880
vn -0.0000 0.0000 1.0000
vn -1.0000 -0.0000 0.0000
vn 0.0000 -1.0000 0.0000
vn -0.2391 0.8912 0.3854
vn 0.7309 0.5471 0.4080
vn 0.7238 0.5441 0.4243
vn 0.0183 0.8963 0.4430
vn 0.1047 0.6678 -0.7370
vn -0.0129 0.8025 -0.5965
vn 0.3738 0.1458 -0.9160
g Cube_cell.007_Cube_cell.006_Material
usemtl Material
s off
f 171/278/87 173/279/87 172/280/87
f 182/281/88 183/282/88 170/283/88 181/284/88
f 187/285/89 170/286/89 183/287/89 185/288/89 186/289/89
f 184/290/90 181/291/90 170/292/90 187/293/90
f 175/294/91 176/295/91 173/296/91 177/297/91
f 172/298/92 180/299/92 171/278/92
f 172/300/93 176/301/93 174/302/93 180/303/93
f 176/304/94 172/280/94 173/296/94
f 173/279/95 171/305/95 179/306/95
f 179/307/96 177/308/96 173/309/96
f 179/310/97 171/311/97 180/312/97 178/313/97
